<?xml version="1.0" standalone="no"?>
<!DOCTYPE svg PUBLIC "-//W3C//DTD SVG 20010904//EN"
 "http://www.w3.org/TR/2001/REC-SVG-20010904/DTD/svg10.dtd">
<svg version="1.0" xmlns="http://www.w3.org/2000/svg"
 width="512.000000pt" height="512.000000pt" viewBox="0 0 512.000000 512.000000"
 preserveAspectRatio="xMidYMid meet">
<metadata>
Created by potrace 1.14, written by Peter Selinger 2001-2017
</metadata>
<g transform="translate(0.000000,512.000000) scale(0.100000,-0.100000)"
fill="#000000" stroke="none">
<path d="M2517 4994 c-1 -1 -47 -4 -102 -7 -490 -27 -986 -220 -1381 -538
-145 -117 -343 -327 -434 -459 -13 -19 -27 -37 -30 -40 -30 -26 -174 -282
-225 -400 -20 -47 -42 -98 -50 -115 -30 -69 -97 -299 -111 -380 -2 -16 -7 -37
-9 -45 -2 -8 -7 -37 -11 -65 -3 -27 -8 -52 -9 -55 -9 -14 -19 -190 -20 -320 0
-134 10 -315 20 -350 3 -8 7 -31 9 -50 39 -268 157 -601 299 -840 148 -249
351 -487 552 -649 39 -31 72 -58 75 -61 14 -16 147 -104 237 -159 248 -149
568 -267 833 -306 20 -3 47 -8 60 -10 97 -20 454 -27 600 -12 481 48 974 259
1330 571 214 187 366 366 503 591 174 287 279 585 332 945 30 205 24 495 -15
727 -94 556 -390 1078 -816 1438 -113 96 -123 103 -248 186 -290 192 -664 336
-971 374 -27 4 -61 8 -75 11 -53 8 -337 23 -343 18z m234 -278 c115 -11 163
-17 179 -21 8 -3 33 -7 55 -11 22 -3 43 -8 46 -10 3 -2 21 -6 40 -9 50 -9 262
-75 274 -86 5 -5 16 -9 25 -9 47 0 445 -225 525 -297 11 -10 47 -40 80 -68
368 -309 635 -768 724 -1245 27 -147 36 -257 35 -435 -4 -457 -159 -911 -437
-1277 -220 -289 -508 -518 -847 -672 -85 -39 -319 -120 -375 -129 -16 -3 -41
-8 -55 -11 -154 -34 -238 -41 -460 -41 -102 0 -216 4 -255 9 -215 26 -484 106
-687 205 -108 53 -301 170 -362 221 -226 188 -346 314 -468 490 -205 298 -339
658 -376 1015 -9 86 -8 428 1 470 3 11 8 43 11 70 8 55 55 276 63 287 2 5 6
16 8 25 8 42 76 217 120 308 334 697 1032 1172 1795 1222 47 3 86 6 87 7 5 4
184 -2 254 -8z"/>
<path d="M1635 3893 c-11 -3 -25 -9 -31 -14 -8 -6 -11 -289 -10 -981 l1 -973
45 -3 c29 -1 57 4 77 15 18 10 110 95 205 188 222 219 230 226 266 216 102
-30 244 -159 299 -272 95 -196 100 -392 17 -681 -14 -48 -26 -101 -26 -118 -1
-39 26 -61 66 -53 39 8 131 58 186 101 76 59 284 274 327 337 78 115 173 331
197 448 3 12 8 33 11 47 22 95 27 143 30 286 3 141 0 177 -21 282 -27 133 -77
286 -131 402 -19 41 -44 96 -54 123 l-19 47 38 42 c20 24 46 52 57 64 11 11
87 91 168 177 81 85 161 172 178 193 34 43 37 83 8 110 -20 18 -51 19 -943 20
-506 1 -930 -1 -941 -3z"/>
</g>
</svg>
